<svg style="display:none">
  <symbol id="Logo" viewBox="0 0 130 35" fill="none" xmlns="http://www.w3.org/2000/svg"><g clip-path="url(#clip0_401_2)"><mask id="mask0_401_2" style="mask-type:luminance" maskUnits="userSpaceOnUse" x="0" y="0" width="130" height="35"><path d="M130 0H0V35H130V0Z" fill="white"/></mask><g mask="url(#mask0_401_2)"><path d="M0 8.10751H4.65436L7.37571 18.658L13.1064 8.10751H15.0126L17.7657 18.658L23.4841 8.10751H28.6145L17.9024 27.7979H15.5739L12.8966 17.3914L7.2854 27.7979H5.00826L0 8.10751Z" fill="currentColor"/><path d="M44.2884 22.0358L48.5426 24.2396C47.5882 25.4916 46.3263 26.4825 44.7497 27.2122C43.1755 27.9395 41.4279 28.3055 39.5096 28.3055C36.5051 28.3055 34.1377 27.4611 32.4048 25.7723C30.6743 24.0834 29.8079 21.8381 29.8079 19.0412C29.8079 15.844 30.8916 13.1375 33.0564 10.9239C35.2213 8.71034 37.8377 7.60233 40.9032 7.60233C42.7483 7.60233 44.3934 8.00746 45.8358 8.81528C47.2783 9.6231 48.4156 10.7995 49.2478 12.3443C50.0802 13.8892 50.4975 15.5659 50.4975 17.3743C50.4975 17.9405 50.4365 18.6043 50.3169 19.3658H34.6062C34.6551 20.7349 35.1042 21.8259 35.956 22.6362C36.8053 23.4489 37.9793 23.854 39.4755 23.854C41.2864 23.854 42.8899 23.2487 44.2909 22.0358H44.2884ZM45.5185 15.8173C45.1572 14.6116 44.552 13.6964 43.7099 13.0764C42.8655 12.4541 41.8453 12.1442 40.6518 12.1442C39.4583 12.1442 38.4015 12.4639 37.4496 13.1033C36.4953 13.7428 35.7729 14.6482 35.2775 15.8173H45.5209H45.5185Z" fill="currentColor"/><path d="M59.833 8.10752V10.2796C60.7263 9.38637 61.6904 8.71766 62.7277 8.27104C63.765 7.82442 64.8754 7.60233 66.0568 7.60233C68.6268 7.60233 70.8112 8.57367 72.6075 10.5163C74.4064 12.459 75.3045 14.9509 75.3045 17.9918C75.3045 21.0327 74.3746 23.3756 72.5172 25.3476C70.6599 27.3195 68.4584 28.3055 65.9104 28.3055C64.7754 28.3055 63.721 28.103 62.7423 27.7004C61.7661 27.2951 60.7947 26.6362 59.8282 25.7186V35.0025H54.9224V8.10752H59.8282H59.833ZM65.0268 12.1613C63.4696 12.1613 62.1786 12.6934 61.1535 13.755C60.1284 14.8166 59.6159 16.2053 59.6159 17.9185C59.6159 19.6318 60.1284 21.0815 61.1535 22.1627C62.1786 23.2414 63.4696 23.7832 65.0268 23.7832C66.584 23.7832 67.8043 23.2341 68.8367 22.1358C69.8691 21.0376 70.3841 19.6392 70.3841 17.9381C70.3841 16.2371 69.8764 14.8654 68.8635 13.7842C67.8506 12.7056 66.5718 12.1637 65.0268 12.1637V12.1613Z" fill="currentColor"/><path d="M81.3257 0C82.1921 0 82.934 0.314832 83.554 0.942054C84.1739 1.56928 84.4839 2.33073 84.4839 3.22154C84.4839 4.11233 84.1764 4.85426 83.5638 5.47417C82.9511 6.0965 82.2165 6.40646 81.3623 6.40646C80.508 6.40646 79.7343 6.08919 79.1144 5.45709C78.4945 4.82254 78.1845 4.05377 78.1845 3.15076C78.1845 2.24776 78.492 1.53999 79.1047 0.924971C79.7198 0.309951 80.4568 0.00244055 81.3257 0.00244055V0ZM78.8556 8.10753H83.7956V27.7979H78.8556V8.10753Z" fill="currentColor"/><path d="M88.284 8.10752H93.2239V10.1259C94.3441 9.18137 95.3595 8.52486 96.2698 8.15633C97.1803 7.7878 98.1102 7.60233 99.062 7.60233C101.015 7.60233 102.672 8.28324 104.031 9.64751C105.176 10.8068 105.749 12.5201 105.749 14.7873V27.8004H100.863V19.1779C100.863 16.8277 100.758 15.2681 100.548 14.4969C100.339 13.7256 99.97 13.1375 99.4476 12.7348C98.9229 12.3321 98.2786 12.1295 97.5073 12.1295C96.509 12.1295 95.6499 12.4639 94.9348 13.1327C94.2173 13.8013 93.7218 14.7263 93.4436 15.9075C93.2996 16.5226 93.2264 17.8551 93.2264 19.9027V27.8028H88.2865V8.10752H88.284Z" fill="currentColor"/><path d="M110.562 0.507629H115.502V16.2248L122.778 8.10752H128.983L120.501 17.5452L129.998 27.7979H123.864L115.502 18.724V27.7979H110.562V0.507629Z" fill="currentColor"/></g></g><defs><clipPath id="clip0_401_2"><rect width="130" height="35" fill="white"/></clipPath></defs></symbol>
	<symbol id="ChevronLeft" xmlns="http://www.w3.org/2000/svg" fill="none" viewBox="0 0 24 24" stroke="currentColor"><path stroke-linecap="round" stroke-linejoin="round" d="M15.75 19.5L8.25 12l7.5-7.5" /></symbol>
	<symbol id="ChevronRight" xmlns="http://www.w3.org/2000/svg" fill="none" viewBox="0 0 24 24" stroke="currentColor"><path stroke-linecap="round" stroke-linejoin="round" d="M8.25 4.5l7.5 7.5-7.5 7.5" /></symbol>
	<symbol id="ChevronUp" xmlns="http://www.w3.org/2000/svg" fill="none" viewBox="0 0 24 24" stroke="currentColor"><path stroke-linecap="round" stroke-linejoin="round" d="M4.5 15.75l7.5-7.5 7.5 7.5" /></symbol>	
	<symbol id="ChevronDown" xmlns="http://www.w3.org/2000/svg" fill="none" viewBox="0 0 24 24" stroke="currentColor"><path stroke-linecap="round" stroke-linejoin="round" d="M19.5 8.25l-7.5 7.5-7.5-7.5" /></symbol>
	<symbol id="QuestionMarkCircle" xmlns="http://www.w3.org/2000/svg" fill="none" viewBox="0 0 24 24" stroke="currentColor"><path stroke-linecap="round" stroke-linejoin="round" d="M9.879 7.519c1.171-1.025 3.071-1.025 4.242 0 1.172 1.025 1.172 2.687 0 3.712-.203.179-.43.326-.67.442-.745.361-1.45.999-1.45 1.827v.75M21 12a9 9 0 11-18 0 9 9 0 0118 0zm-9 5.25h.008v.008H12v-.008z" /></symbol>
  <symbol id="User" viewBox="0 0 20 20" fill="none" xmlns="http://www.w3.org/2000/svg"><path fill-rule="evenodd" clip-rule="evenodd" d="M18.4375 10C18.4375 12.5654 17.0779 14.8981 14.9437 16.3335C14.3166 14.2988 12.305 12.8594 10.0024 12.8594C7.6987 12.8594 5.68635 14.3 5.06027 16.3361C2.92374 14.901 1.5625 12.567 1.5625 10C1.5625 5.77874 5.24357 2.1875 10 2.1875C14.7564 2.1875 18.4375 5.77874 18.4375 10ZM10.0024 14.3906C11.82 14.3906 13.2528 15.5901 13.5551 17.0902C12.4818 17.5525 11.2798 17.8125 10 17.8125C8.72191 17.8125 7.52146 17.5532 6.44922 17.092C6.75075 15.5911 8.18399 14.3906 10.0024 14.3906ZM20 10C20 15.1777 15.5228 19.375 10 19.375C4.47715 19.375 0 15.1777 0 10C0 4.82233 4.47715 0.625 10 0.625C15.5228 0.625 20 4.82233 20 10ZM10.0625 9.8125C9.46561 9.8125 8.8125 9.26543 8.8125 8.375C8.8125 7.48457 9.46561 6.9375 10.0625 6.9375C10.6594 6.9375 11.3125 7.48457 11.3125 8.375C11.3125 9.26543 10.6594 9.8125 10.0625 9.8125ZM10.0625 11.375C8.5092 11.375 7.25 10.0319 7.25 8.375C7.25 6.71815 8.5092 5.375 10.0625 5.375C11.6158 5.375 12.875 6.71815 12.875 8.375C12.875 10.0319 11.6158 11.375 10.0625 11.375Z" fill="currentColor"/></symbol>
  <symbol id="ShoppingCart" viewBox="0 0 36 36" fill="none" xmlns="http://www.w3.org/2000/svg"><path d="M30.063 23.6011H10.1505L9.61051 20.7886H30.153C30.8006 20.7904 31.4286 20.5669 31.9294 20.1564C32.4303 19.7459 32.7727 19.1739 32.898 18.5386L34.788 9.5386C34.8751 9.12927 34.8697 8.70566 34.7722 8.29868C34.6748 7.89169 34.4877 7.51158 34.2247 7.18606C33.9617 6.86054 33.6294 6.59782 33.2519 6.41704C32.8745 6.23627 32.4615 6.142 32.043 6.1411H6.77551L6.28051 3.3511H1.15051V6.1636H3.96301L7.33801 23.8036C6.35779 24.0352 5.48361 24.589 4.8554 25.3763C4.22719 26.1636 3.88127 27.1389 3.87301 28.1461C3.9257 29.3856 4.46605 30.554 5.37635 31.3969C6.28666 32.2398 7.49315 32.6888 8.73301 32.6461C9.96299 32.6766 11.1555 32.2215 12.0524 31.3793C12.9494 30.5371 13.4786 29.3756 13.5255 28.1461C13.5214 27.5505 13.399 26.9616 13.1655 26.4136H25.518C25.2845 26.9616 25.1622 27.5505 25.158 28.1461C25.2107 29.3856 25.7511 30.554 26.6614 31.3969C27.5717 32.2398 28.7782 32.6888 30.018 32.6461C31.2115 32.6461 32.3561 32.172 33.2 31.3281C34.0439 30.4842 34.518 29.3396 34.518 28.1461C34.518 26.9526 34.0439 25.808 33.2 24.9641C32.3561 24.1202 31.2115 23.6461 30.018 23.6461L30.063 23.6011ZM32.043 9.0211L30.153 18.0211H9.02551L7.36051 9.0211H32.043ZM8.73301 29.8786C8.24779 29.8922 7.77556 29.7207 7.41207 29.399C7.04857 29.0773 6.82101 28.6294 6.77551 28.1461C6.82133 27.6465 7.06165 27.1849 7.44466 26.8608C7.82767 26.5367 8.32269 26.3761 8.82301 26.4136C9.32095 26.3763 9.81341 26.5376 10.1928 26.8622C10.5723 27.1868 10.8078 27.6484 10.848 28.1461C10.8286 28.4009 10.7578 28.6492 10.6397 28.8758C10.5216 29.1025 10.3588 29.3028 10.1611 29.4648C9.96343 29.6267 9.73494 29.7469 9.48947 29.818C9.24401 29.8892 8.98667 29.9098 8.73301 29.8786ZM30.063 29.8786C29.5627 29.9161 29.0677 29.7555 28.6847 29.4314C28.3016 29.1073 28.0613 28.6457 28.0155 28.1461C28.1026 27.6696 28.3541 27.2387 28.7262 26.9285C29.0983 26.6183 29.5673 26.4484 30.0518 26.4484C30.5362 26.4484 31.0053 26.6183 31.3773 26.9285C31.7494 27.2387 32.0009 27.6696 32.088 28.1461C32.0422 28.6416 31.805 29.0997 31.427 29.4231C31.0489 29.7466 30.5596 29.91 30.063 29.8786Z" fill="currentColor"/></symbol>
  <symbol id="Bars3"  viewBox="0 0 20 18" fill="none" xmlns="http://www.w3.org/2000/svg"><path d="M17.7778 7.875H2.2222C1.55553 7.875 1.11108 8.325 1.11108 9C1.11108 9.675 1.55553 10.125 2.2222 10.125H17.7778C18.4444 10.125 18.8889 9.675 18.8889 9C18.8889 8.325 18.4444 7.875 17.7778 7.875Z" fill="black" stroke="black"/><path d="M17.7778 1.125H2.2222C1.55553 1.125 1.11108 1.575 1.11108 2.25C1.11108 2.925 1.55553 3.375 2.2222 3.375H17.7778C18.4444 3.375 18.8889 2.925 18.8889 2.25C18.8889 1.575 18.4444 1.125 17.7778 1.125Z" fill="black" stroke="black"/><path d="M17.7778 14.625H2.2222C1.55553 14.625 1.11108 15.075 1.11108 15.75C1.11108 16.425 1.55553 16.875 2.2222 16.875H17.7778C18.4444 16.875 18.8889 16.425 18.8889 15.75C18.8889 15.075 18.4444 14.625 17.7778 14.625Z" fill="black" stroke="black"/></symbol>
	<symbol id="Heart" xmlns="http://www.w3.org/2000/svg" viewBox="0 0 24 24" stroke="currentColor"><path stroke-linecap="round" stroke-linejoin="round" d="M21 8.25c0-2.485-2.099-4.5-4.688-4.5-1.935 0-3.597 1.126-4.312 2.733-.715-1.607-2.377-2.733-4.313-2.733C5.1 3.75 3 5.765 3 8.25c0 7.22 9 12 9 12s9-4.78 9-12z" /></symbol>
	<symbol id="MagnifyingGlass" width="16" height="16" viewBox="0 0 16 16" fill="none" xmlns="http://www.w3.org/2000/svg"><path d="M15.707 13.293L13 10.586C13.63 9.536 14 8.311 14 7C14 3.14 10.859 0 7 0C3.141 0 0 3.14 0 7C0 10.86 3.141 14 7 14C8.312 14 9.536 13.631 10.586 13L13.293 15.707C13.488 15.902 13.744 16 14 16C14.256 16 14.512 15.902 14.707 15.707L15.707 14.707C16.098 14.316 16.098 13.684 15.707 13.293ZM7 12C4.239 12 2 9.761 2 7C2 4.239 4.239 2 7 2C9.761 2 12 4.239 12 7C12 9.761 9.761 12 7 12Z" fill="currentColor"></path></symbol>
	<symbol id="XMark" xmlns="http://www.w3.org/2000/svg" fill="none" viewBox="0 0 24 24" stroke="currentColor"><path stroke-linecap="round" stroke-linejoin="round" d="M6 18L18 6M6 6l12 12" /></symbol>
	<symbol id="Plus" xmlns="http://www.w3.org/2000/svg" fill="none" viewBox="0 0 24 24" stroke="currentColor"><path stroke-linecap="round" stroke-linejoin="round" d="M12 4.5v15m7.5-7.5h-15" /></symbol>
	<symbol id="Minus" xmlns="http://www.w3.org/2000/svg" fill="none" viewBox="0 0 24 24" stroke="currentColor"><path stroke-linecap="round" stroke-linejoin="round" d="M19.5 12h-15" /></symbol>
	<symbol id="MapPin" xmlns="http://www.w3.org/2000/svg" fill="none" viewBox="0 0 24 24" stroke="currentColor"><path stroke-linecap="round" stroke-linejoin="round" d="M15 10.5a3 3 0 11-6 0 3 3 0 016 0z" /><path stroke-linecap="round" stroke-linejoin="round" d="M19.5 10.5c0 7.142-7.5 11.25-7.5 11.25S4.5 17.642 4.5 10.5a7.5 7.5 0 1115 0z" /></symbol>	
	<symbol id="Phone" xmlns="http://www.w3.org/2000/svg" fill="none" viewBox="0 0 24 24" stroke="currentColor"><path stroke-linecap="round" stroke-linejoin="round" d="M2.25 6.75c0 8.284 6.716 15 15 15h2.25a2.25 2.25 0 002.25-2.25v-1.372c0-.516-.351-.966-.852-1.091l-4.423-1.106c-.44-.11-.902.055-1.173.417l-.97 1.293c-.282.376-.769.542-1.21.38a12.035 12.035 0 01-7.143-7.143c-.162-.441.004-.928.38-1.21l1.293-.97c.363-.271.527-.734.417-1.173L6.963 3.102a1.125 1.125 0 00-1.091-.852H4.5A2.25 2.25 0 002.25 4.5v2.25z" /></symbol>
	<symbol id="Elo" xmlns="http://www.w3.org/2000/svg" viewBox="0 0 40 14" stroke="currentColor" fill="none"><path d="M6.57655 3.09309C6.98496 2.95495 7.4234 2.88288 7.87985 2.88288C9.87385 2.88288 11.5375 4.3003 11.9159 6.18018L14.7387 5.6036C14.0901 2.40841 11.2672 0 7.87985 0C7.10508 0 6.36033 0.126126 5.66364 0.36036L6.57655 3.09309Z" fill="currentColor"/><path d="M3.24323 12.2463L5.15314 10.0841C4.30029 9.32733 3.76576 8.22823 3.76576 6.997C3.76576 5.77178 4.30029 4.66667 5.15314 3.91592L3.24323 1.75977C1.79579 3.04505 0.882874 4.91292 0.882874 7.00301C0.882874 9.08709 1.79579 10.961 3.24323 12.2463Z" fill="currentColor"/><path d="M11.9159 7.82617C11.5315 9.70605 9.87387 11.1175 7.87988 11.1175C7.42342 11.1175 6.98498 11.0454 6.57057 10.9073L5.65765 13.64C6.35435 13.8742 7.1051 14.0003 7.87988 14.0003C11.2673 14.0003 14.0901 11.5979 14.7387 8.40275L11.9159 7.82617Z" fill="currentColor"/><path d="M24.1441 9.75962C23.6757 10.2161 23.045 10.4924 22.3484 10.4803C21.8679 10.4743 21.4234 10.3302 21.0511 10.0899L20.1141 11.5794C20.7568 11.9818 21.5075 12.2221 22.3243 12.2341C23.5075 12.2521 24.5886 11.7836 25.3754 11.0209L24.1441 9.75962ZM22.4505 3.68755C20.0961 3.65151 18.1502 5.5374 18.1141 7.89175C18.1021 8.77463 18.3544 9.60346 18.8048 10.2881L26.5405 6.97884C26.1081 5.12298 24.4505 3.72358 22.4505 3.68755ZM19.8859 8.22809C19.8739 8.13199 19.8679 8.02989 19.8679 7.92779C19.8919 6.5404 21.033 5.42929 22.4204 5.45331C23.1772 5.46532 23.8499 5.80767 24.3003 6.34821L19.8859 8.22809ZM28.973 1.76562V10.0119L30.4024 10.6065L29.7237 12.2341L28.3063 11.6455C27.988 11.5074 27.7718 11.2972 27.6096 11.0569C27.4535 10.8167 27.3333 10.4803 27.3333 10.0359V1.76562H28.973Z" fill="currentColor"/><path d="M34.1321 5.57925C34.3844 5.49516 34.6487 5.45312 34.9309 5.45312C36.1502 5.45312 37.1592 6.31798 37.3934 7.46513L39.1171 7.11078C38.7207 5.15882 36.997 3.69336 34.9309 3.69336C34.4565 3.69336 34 3.77144 33.5796 3.90958L34.1321 5.57925ZM32.0961 11.1588L33.2613 9.84351C32.7387 9.38105 32.4144 8.70837 32.4144 7.95762C32.4144 7.20687 32.7448 6.5342 33.2613 6.07774L32.0961 4.76243C31.2132 5.54321 30.6547 6.69036 30.6547 7.96363C30.6547 9.2369 31.2132 10.378 32.0961 11.1588ZM37.3934 8.46813C37.1592 9.61528 36.1442 10.4801 34.9309 10.4801C34.6547 10.4801 34.3844 10.4321 34.1321 10.348L33.5736 12.0177C34 12.1618 34.4565 12.2399 34.9309 12.2399C36.997 12.2399 38.7207 10.7744 39.1171 8.82249L37.3934 8.46813Z" fill="currentColor"/></symbol>
	<symbol id="Mastercard" xmlns="http://www.w3.org/2000/svg" viewBox="0 0 26 20" fill="none" stroke="currentColor"><g clip-path="url(#clip0_81_156)"><path d="M4.77191 19.9552V18.6263C4.77191 18.1167 4.46174 17.7846 3.95265 17.7846C3.68527 17.7846 3.39918 17.8734 3.19971 18.159C3.04463 17.9151 2.82538 17.7846 2.49116 17.7846C2.36689 17.7793 2.24323 17.8048 2.13124 17.8589C2.01926 17.913 1.92244 17.9941 1.84944 18.0948V17.8274H1.42859V19.9536H1.84944V18.737C1.84944 18.3627 2.07083 18.1836 2.381 18.1836C2.69116 18.1836 2.86816 18.383 2.86816 18.737V19.9552H3.28902V18.737C3.28902 18.3627 3.51041 18.1836 3.82057 18.1836C4.13073 18.1836 4.30773 18.383 4.30773 18.737V19.9552H4.77191ZM11.6821 17.8509H10.9067V17.2092H10.4869V17.8509H10.0441V18.2253H10.4869V19.2242C10.4869 19.7114 10.6639 19.9996 11.1954 19.9996C11.3968 19.9954 11.5941 19.9422 11.7703 19.8445L11.6371 19.4702C11.5177 19.5449 11.3791 19.5833 11.2382 19.5809C11.0168 19.5809 10.9061 19.4477 10.9061 19.2263V18.2082H11.6815V17.8536L11.6821 17.8509ZM15.6243 17.7846C15.5097 17.7821 15.3964 17.8093 15.2954 17.8637C15.1945 17.918 15.1093 17.9977 15.0484 18.0948V17.8274H14.6275V19.9536H15.0484V18.7595C15.0484 18.405 15.2254 18.1836 15.5136 18.1836C15.6109 18.1875 15.7074 18.2024 15.8013 18.2279L15.9345 17.829C15.8329 17.8034 15.729 17.7885 15.6243 17.7846ZM9.66656 18.006C9.44517 17.8509 9.13501 17.7846 8.80292 17.7846C8.27137 17.7846 7.93928 18.0285 7.93928 18.4493C7.93928 18.8039 8.18314 19.0028 8.64784 19.0697L8.86923 19.0916C9.11308 19.136 9.26816 19.2247 9.26816 19.3354C9.26816 19.4905 9.09116 19.6028 8.75854 19.6028C8.50456 19.608 8.2558 19.5303 8.04998 19.3814L7.82859 19.7135C8.13875 19.9349 8.51522 19.9809 8.73768 19.9809C9.358 19.9809 9.69009 19.6932 9.69009 19.2943C9.69009 18.9199 9.42271 18.7408 8.95907 18.6739L8.73768 18.652C8.53822 18.6301 8.36335 18.5632 8.36335 18.4306C8.36335 18.2755 8.54036 18.1632 8.78421 18.1632C9.05159 18.1632 9.31576 18.2739 9.44891 18.3402L9.66656 18.006ZM16.0896 18.8921C16.0896 19.5338 16.5104 19.9996 17.197 19.9996C17.5072 19.9996 17.7286 19.9333 17.95 19.7558L17.7286 19.4237C17.5718 19.5506 17.3768 19.6209 17.1751 19.6231C16.8008 19.6231 16.5104 19.3354 16.5104 18.9146C16.5104 18.4937 16.797 18.2082 17.1751 18.2082C17.3768 18.2104 17.5718 18.2807 17.7286 18.4076L17.95 18.0755C17.7286 17.8985 17.5072 17.8317 17.197 17.8317C16.5323 17.7873 16.0896 18.2525 16.0896 18.8948V18.8921ZM13.1216 17.7846C12.5013 17.7846 12.0805 18.2274 12.0805 18.8921C12.0805 19.5568 12.5232 19.9996 13.1655 19.9996C13.4779 20.0062 13.7831 19.9046 14.0291 19.7119L13.8077 19.4017C13.6298 19.5396 13.4125 19.6172 13.1874 19.6231C12.8997 19.6231 12.5896 19.4461 12.5457 19.0697H14.1184V18.8927C14.1184 18.2279 13.7195 17.7852 13.1216 17.7852V17.7846ZM13.0997 18.1836C13.4099 18.1836 13.6313 18.383 13.6532 18.7151H12.5019C12.5682 18.405 12.7692 18.1836 13.0997 18.1836ZM7.36335 18.8921V17.829H6.94249V18.0964C6.78741 17.8969 6.56816 17.7862 6.25586 17.7862C5.658 17.7862 5.21469 18.2515 5.21469 18.8937C5.21469 19.536 5.65747 20.0012 6.25586 20.0012C6.56602 20.0012 6.78741 19.8905 6.94249 19.691V19.9584H7.36335V18.8921ZM5.658 18.8921C5.658 18.4932 5.90185 18.1836 6.32271 18.1836C6.72164 18.1836 6.96442 18.4937 6.96442 18.8921C6.96442 19.313 6.69704 19.6007 6.32271 19.6007C5.90185 19.6226 5.658 19.2905 5.658 18.8921ZM22.0259 17.7846C21.9113 17.7821 21.798 17.8093 21.697 17.8637C21.5961 17.918 21.5109 17.9977 21.45 18.0948V17.8274H21.0291V19.9536H21.4495V18.7595C21.4495 18.405 21.6265 18.1836 21.9147 18.1836C22.012 18.1875 22.1085 18.2024 22.2024 18.2279L22.3355 17.829C22.234 17.8034 22.13 17.7885 22.0254 17.7846H22.0259ZM20.3869 18.8921V17.829H19.966V18.0964C19.8109 17.8969 19.5917 17.7862 19.2794 17.7862C18.6815 17.7862 18.2382 18.2515 18.2382 18.8937C18.2382 19.536 18.681 20.0012 19.2794 20.0012C19.5896 20.0012 19.8109 19.8905 19.966 19.691V19.9584H20.3869V18.8921ZM18.6815 18.8921C18.6815 18.4932 18.9254 18.1836 19.3462 18.1836C19.7452 18.1836 19.988 18.4937 19.988 18.8921C19.988 19.313 19.7206 19.6007 19.3462 19.6007C18.9254 19.6226 18.6815 19.2905 18.6815 18.8921ZM24.6618 18.8921V16.9873H24.2409V18.0948C24.0858 17.8953 23.8666 17.7846 23.5543 17.7846C22.9564 17.7846 22.5131 18.2499 22.5131 18.8921C22.5131 19.5344 22.9559 19.9996 23.5543 19.9996C23.8644 19.9996 24.0858 19.8889 24.2409 19.6894V19.9568H24.6618V18.8921ZM22.9564 18.8921C22.9564 18.4932 23.2003 18.1836 23.6211 18.1836C24.02 18.1836 24.2628 18.4937 24.2628 18.8921C24.2628 19.313 23.9954 19.6007 23.6211 19.6007C23.1997 19.6231 22.9559 19.291 22.9559 18.8921H22.9564Z" fill="currentColor"/><path d="M9.95478 7.97327C9.95505 6.76731 10.2281 5.57704 10.7536 4.49159C11.279 3.40613 12.0433 2.45361 12.989 1.70535C11.8128 0.780601 10.4002 0.205442 8.9126 0.045623C7.42499 -0.114196 5.92242 0.147775 4.57667 0.801588C3.23091 1.4554 2.09627 2.47468 1.30244 3.74289C0.508619 5.01111 0.0876465 6.47709 0.0876465 7.97327C0.0876465 9.46944 0.508619 10.9354 1.30244 12.2036C2.09627 13.4719 3.23091 14.4911 4.57667 15.1449C5.92242 15.7988 7.42499 16.0607 8.9126 15.9009C10.4002 15.7411 11.8128 15.1659 12.989 14.2412C12.0433 13.4929 11.279 12.5404 10.7536 11.4549C10.2281 10.3695 9.95505 9.17922 9.95478 7.97327Z" fill="currentColor"/><path d="M25.9019 7.97297C25.9029 9.46805 25.4832 10.9333 24.6907 12.201C23.8982 13.4688 22.7648 14.4879 21.4203 15.1418C20.0758 15.7957 18.5744 16.0579 17.0879 15.8986C15.6013 15.7393 14.1896 15.1648 13.0142 14.2409C13.9601 13.4928 14.7245 12.5403 15.25 11.4548C15.7755 10.3693 16.0485 9.17898 16.0485 7.97297C16.0485 6.76696 15.7755 5.5766 15.25 4.4911C14.7245 3.4056 13.9601 2.45312 13.0142 1.70506C14.1896 0.781104 15.6013 0.20662 17.0879 0.0473072C18.5744 -0.112005 20.0758 0.150287 21.4203 0.804186C22.7648 1.45808 23.8982 2.47719 24.6907 3.74493C25.4832 5.01268 25.9029 6.47789 25.9019 7.97297Z" fill="currentColor" fill-opacity="0.4"/><path fill-rule="evenodd" clip-rule="evenodd" d="M13.0141 1.70508H12.989C12.0432 2.45333 11.279 3.40585 10.7536 4.49131C10.2281 5.57677 9.95504 6.76704 9.95477 7.97299C9.95504 9.17894 10.2281 10.3692 10.7536 11.4547C11.279 12.5401 12.0433 13.4926 12.989 14.2409H13.0141C13.0141 14.2409 13.0141 14.2409 13.0141 14.2409C13.9601 13.4928 14.7245 12.5404 15.25 11.4549C15.7755 10.3694 16.0484 9.17899 16.0484 7.97299C16.0484 6.76698 15.7755 5.57661 15.25 4.49111C14.7245 3.40561 13.9601 2.45314 13.0141 1.70508Z" fill="currentColor" fill-opacity="0.6"/></g><defs><clipPath id="clip0_81_156"><rect width="25.8027" height="20" fill="white" transform="translate(0.0986328)"/></clipPath></defs></symbol>
	<symbol id="Visa" xmlns="http://www.w3.org/2000/svg" viewBox="0 0 40 12" fill="none" stroke="currentColor"><path d="M14.2514 11.8628L16.2325 0.237305H19.4012L17.4187 11.8628H14.2514Z" fill="currentColor"/><path d="M28.8667 0.488266C28.2389 0.252744 27.2552 0 26.0267 0C22.8956 0 20.6902 1.57674 20.6714 3.83653C20.6537 5.50698 22.2459 6.43886 23.4479 6.99494C24.6813 7.56486 25.0959 7.92824 25.09 8.437C25.0821 9.21631 24.105 9.57221 23.1942 9.57221C21.926 9.57221 21.2522 9.39601 20.2115 8.96208L19.8031 8.77728L19.3585 11.3797C20.0986 11.7043 21.4671 11.9854 22.8882 12C26.2191 12 28.3815 10.4413 28.4061 8.02807C28.4179 6.70556 27.5737 5.69921 25.7455 4.86948C24.638 4.33169 23.9597 3.97282 23.9669 3.42826C23.9669 2.94504 24.541 2.42833 25.7816 2.42833C26.8177 2.41223 27.5684 2.6382 28.1533 2.87372L28.4372 3.00787L28.8667 0.488266Z" fill="currentColor"/><path d="M37.0208 0.237305H34.5723C33.8138 0.237305 33.2461 0.444322 32.913 1.20137L28.2071 11.8552H31.5345C31.5345 11.8552 32.0785 10.4228 32.2015 10.1082C32.5651 10.1082 35.7976 10.1132 36.2597 10.1132C36.3545 10.5202 36.6452 11.8552 36.6452 11.8552H39.5855L37.0208 0.237305ZM33.136 7.74409C33.3981 7.07428 34.3985 4.49428 34.3985 4.49428C34.3798 4.52522 34.6587 3.82121 34.8186 3.38473L35.0328 4.38703C35.0328 4.38703 35.6395 7.16205 35.7663 7.74391H33.136V7.74409Z" fill="currentColor"/><path d="M0.45503 0.237305L0.414551 0.479138C1.66716 0.782359 2.78593 1.22123 3.76542 1.76717L6.57706 11.8441L9.92966 11.8404L14.9183 0.237305H11.5615L8.45929 8.16502L8.12885 6.55384C8.11337 6.50406 8.09654 6.4542 8.07932 6.40422L7.00087 1.21879C6.80912 0.482646 6.25282 0.262959 5.56461 0.237305H0.45503Z" fill="currentColor"/></symbol>		
	<symbol id="Pix" viewBox="0 0 512 512" xmlns="http://www.w3.org/2000/svg" fill="none" stroke="currentColor"> <defs/> <g fill="currentColor" fill-rule="evenodd"> <path d="M393.072 391.897c-20.082 0-38.969-7.81-53.176-22.02l-77.069-77.067c-5.375-5.375-14.773-5.395-20.17 0l-76.784 76.786c-14.209 14.207-33.095 22.019-53.179 22.019h-9.247l97.521 97.52c30.375 30.375 79.614 30.375 109.988 0l97.239-97.238h-15.123zm-105.049 74.327c-8.55 8.53-19.93 13.25-32.05 13.25h-.02c-12.12 0-23.522-4.721-32.05-13.25l-56.855-56.855c7.875-4.613 15.165-10.248 21.758-16.84l63.948-63.948 64.23 64.23c7.637 7.66 16.188 14.013 25.478 18.952l-54.439 54.46zM310.958 22.78c-30.374-30.374-79.613-30.374-109.988 0l-97.52 97.52h9.247c20.082 0 38.97 7.834 53.178 22.02l76.784 76.785c5.57 5.592 14.622 5.57 20.17 0l77.069-77.068c14.207-14.187 33.094-22.02 53.176-22.02h15.123l-97.239-97.237zm6.028 96.346l-64.23 64.23-63.97-63.97c-6.593-6.592-13.86-12.206-21.736-16.818l56.853-56.877c17.69-17.645 46.476-17.668 64.121 0l54.44 54.461c-9.292 4.961-17.842 11.315-25.479 18.974h.001z"/> <path d="M489.149 200.97l-58.379-58.377h-37.706c-13.838 0-27.394 5.635-37.185 15.426l-77.068 77.069c-7.202 7.18-16.623 10.77-26.067 10.77-9.443 0-18.885-3.59-26.066-10.77l-76.785-76.785c-9.792-9.814-23.346-15.427-37.207-15.427h-31.81L22.78 200.97c-30.374 30.375-30.374 79.614 0 109.988l58.095 58.074 31.81.021c13.86 0 27.416-5.635 37.208-15.426l76.784-76.764c13.925-13.947 38.208-13.924 52.133-.02l77.068 77.066c9.791 9.792 23.346 15.405 37.185 15.405h37.706l58.379-58.356c30.374-30.374 30.374-79.613 0-109.988zm-362.19 129.724c-3.763 3.786-8.942 5.917-14.273 5.917H94.302l-48.59-48.564c-17.689-17.69-17.689-46.476 0-64.143L94.3 175.296h18.385c5.331 0 10.51 2.154 14.295 5.918l74.74 74.74-74.761 74.74zm339.257-42.647l-48.848 48.87h-24.305c-5.309 0-10.508-2.155-14.251-5.92l-75.023-75.043 75.023-75.023c3.743-3.764 8.942-5.918 14.252-5.918h24.304l48.847 48.891c8.573 8.551 13.273 19.93 13.273 32.05 0 12.141-4.7 23.52-13.273 32.093z"/> </g> </symbol>
	<symbol id="Facebook" xmlns="http://www.w3.org/2000/svg" viewBox="0 0 24 24" stroke="currentColor" fill="none" stroke-linecap="round" stroke-linejoin="round"><path stroke="none" d="M0 0h24v24H0z" fill="none" /><path d="M7 10v4h3v7h4v-7h3l1 -4h-4v-2a1 1 0 0 1 1 -1h3v-4h-3a5 5 0 0 0 -5 5v2h-3" /></symbol>
	<symbol id="Instagram" xmlns="http://www.w3.org/2000/svg" viewBox="0 0 24 24" stroke="currentColor" fill="none" stroke-linecap="round" stroke-linejoin="round"><path stroke="none" d="M0 0h24v24H0z" fill="none" /><rect x="4" y="4" width="16" height="16" rx="4" /><circle cx="12" cy="12" r="3" /><line x1="16.5" y1="7.5" x2="16.5" y2="7.501" /></symbol>
	<symbol id="Tiktok" xmlns="http://www.w3.org/2000/svg" viewBox="0 0 24 24" stroke="currentColor" fill="none" stroke-linecap="round" stroke-linejoin="round"><path stroke="none" d="M0 0h24v24H0z" fill="none" /><path d="M9 12a4 4 0 1 0 4 4v-12a5 5 0 0 0 5 5" /></symbol>
	<symbol id="Truck" xmlns="http://www.w3.org/2000/svg"  viewBox="0 0 36 28" stroke="currentColor" fill="none"><path d="M14 22.333C14 24.174 12.5077 25.6663 10.6667 25.6663C8.82576 25.6663 7.33337 24.174 7.33337 22.333M14 22.333C14 20.4921 12.5077 18.9997 10.6667 18.9997C8.82576 18.9997 7.33337 20.4921 7.33337 22.333M14 22.333H24M7.33337 22.333H4.00004V15.6663M30.6667 22.333C30.6667 24.174 29.1743 25.6663 27.3334 25.6663C25.4924 25.6663 24 24.174 24 22.333M30.6667 22.333C30.6667 20.4921 29.1743 18.9997 27.3334 18.9997C25.4924 18.9997 24 20.4921 24 22.333M30.6667 22.333H34V12.333M2.33337 2.33301H20.6667V22.333M34 12.333H20.6667M34 12.333L29 3.99967H20.6667M4.00004 8.99967H10.6667" stroke-linecap="round" stroke-linejoin="round"/></symbol>
	<symbol id="Discount" xmlns="http://www.w3.org/2000/svg" viewBox="0 0 34 34" stroke="currentColor" fill="none"><path d="M12 21.9998L22 11.9998M13.6667 12.8332C13.6667 13.2934 13.2936 13.6665 12.8333 13.6665C12.3731 13.6665 12 13.2934 12 12.8332C12 12.3729 12.3731 11.9998 12.8333 11.9998C13.2936 11.9998 13.6667 12.3729 13.6667 12.8332ZM22 21.1665C22 21.6267 21.6269 21.9998 21.1667 21.9998C20.7064 21.9998 20.3333 21.6267 20.3333 21.1665C20.3333 20.7063 20.7064 20.3332 21.1667 20.3332C21.6269 20.3332 22 20.7063 22 21.1665ZM5.33334 8.99979C5.33334 8.02733 5.71965 7.0947 6.40728 6.40707C7.09491 5.71943 8.02755 5.33313 9.00001 5.33313H10.6667C11.6348 5.33257 12.5635 4.94913 13.25 4.26646L14.4167 3.09979C14.7574 2.75713 15.1625 2.4852 15.6087 2.29964C16.0549 2.11408 16.5334 2.01855 17.0167 2.01855C17.4999 2.01855 17.9784 2.11408 18.4246 2.29964C18.8708 2.4852 19.2759 2.75713 19.6167 3.09979L20.7833 4.26646C21.4699 4.94913 22.3985 5.33257 23.3667 5.33313H25.0333C26.0058 5.33313 26.9384 5.71943 27.6261 6.40707C28.3137 7.0947 28.7 8.02733 28.7 8.99979V10.6665C28.7006 11.6346 29.084 12.5633 29.7667 13.2498L30.9333 14.4165C31.276 14.7572 31.5479 15.1623 31.7335 15.6085C31.9191 16.0547 32.0146 16.5332 32.0146 17.0165C32.0146 17.4997 31.9191 17.9782 31.7335 18.4244C31.5479 18.8706 31.276 19.2757 30.9333 19.6165L29.7667 20.7831C29.084 21.4696 28.7006 22.3983 28.7 23.3665V25.0331C28.7 26.0056 28.3137 26.9382 27.6261 27.6259C26.9384 28.3135 26.0058 28.6998 25.0333 28.6998H23.3667C22.3985 28.7003 21.4699 29.0838 20.7833 29.7665L19.6167 30.9331C19.2759 31.2758 18.8708 31.5477 18.4246 31.7333C17.9784 31.9188 17.4999 32.0144 17.0167 32.0144C16.5334 32.0144 16.0549 31.9188 15.6087 31.7333C15.1625 31.5477 14.7574 31.2758 14.4167 30.9331L13.25 29.7665C12.5635 29.0838 11.6348 28.7003 10.6667 28.6998H9.00001C8.02755 28.6998 7.09491 28.3135 6.40728 27.6259C5.71965 26.9382 5.33334 26.0056 5.33334 25.0331V23.3665C5.33279 22.3983 4.94934 21.4696 4.26667 20.7831L3.10001 19.6165C2.75734 19.2757 2.48541 18.8706 2.29985 18.4244C2.11429 17.9782 2.01877 17.4997 2.01877 17.0165C2.01877 16.5332 2.11429 16.0547 2.29985 15.6085C2.48541 15.1623 2.75734 14.7572 3.10001 14.4165L4.26667 13.2498C4.94934 12.5633 5.33279 11.6346 5.33334 10.6665V8.99979Z" stroke-linecap="round" stroke-linejoin="round"/></symbol>
	<symbol id="Return" xmlns="http://www.w3.org/2000/svg" viewBox="0 0 34 30" stroke="currentColor" fill="none"><path d="M32 6.66699H2M32 6.66699L27 11.667M32 6.66699L27 1.66699M7 28.3337L2 23.3337M2 23.3337L7 18.3337M2 23.3337H32" stroke-linecap="round" stroke-linejoin="round"/></symbol>			
	<symbol id="CreditCard" xmlns="http://www.w3.org/2000/svg" viewBox="0 0 34 28" stroke="currentColor" fill="none"><path d="M2 10.6663H32M8.66667 18.9997H8.68333M15.3333 18.9997H18.6667M7 2.33301H27C29.7614 2.33301 32 4.57158 32 7.33301V20.6663C32 23.4278 29.7614 25.6663 27 25.6663H7C4.23858 25.6663 2 23.4278 2 20.6663V7.33301C2 4.57158 4.23858 2.33301 7 2.33301Z" stroke-linecap="round" stroke-linejoin="round"/></symbol>		
	<symbol id="Deco" xmlns="http://www.w3.org/2000/svg" viewBox="0 0 58 20" stroke="currentColor" fill="none"><path d="M49.5359 16.9432C47.3666 16.9432 46.9948 14.8019 47.6797 12.7178C48.2221 11.0615 49.5066 9.31991 51.4201 9.31991C53.676 9.31991 53.9039 11.6038 53.247 13.6026C52.6753 15.3162 51.3908 16.9432 49.5359 16.9432ZM48.879 19.9973C52.6473 19.9973 56.0159 17.9133 57.3578 14.1449C58.7569 10.1767 57.1859 6.2085 52.0477 6.2085C47.9369 6.2085 44.7962 8.77758 43.5969 12.1755C42.2551 16.0011 43.7115 19.9973 48.879 19.9973ZM36.3747 19.9973C37.8591 19.9973 39.3729 19.6829 40.4282 19.2271C40.8 18.1998 40.828 17.2004 40.5428 16.201C39.8006 16.4862 38.7732 16.7727 37.7165 16.7727C34.861 16.7727 34.6051 14.6606 35.2048 12.8617C35.8617 10.9496 37.574 9.40786 40.287 9.40786C41.0012 9.40786 41.6861 9.52246 42.1138 9.77963C42.856 8.78025 43.2838 7.78086 43.3704 6.7535C42.7428 6.46834 41.6861 6.21117 40.3163 6.21117C35.863 6.21117 32.3505 8.80956 31.0953 12.406C29.896 15.8039 30.8101 20 36.3774 20L36.3747 19.9973ZM21.0442 11.8037C21.8143 10.0901 23.0136 9.09206 24.5846 9.09206C25.9838 9.09206 26.2116 9.86225 25.9838 10.4619C25.6413 11.2894 24.47 11.8037 21.0442 11.8037ZM22.2714 19.9973C23.7278 19.9973 25.7826 19.7122 27.4962 18.8554C27.7813 17.9133 27.7534 16.9712 27.4389 15.9998C26.3542 16.5421 24.8405 16.8566 23.4707 16.8566C21.4439 16.8566 20.3299 16.1997 20.3592 14.5447C25.8972 14.6873 28.7807 13.6879 29.7228 11.2334C30.6649 8.7496 29.0379 6.2085 25.1829 6.2085C21.0721 6.2085 18.046 9.14935 16.932 12.3181C15.7621 15.6867 16.5043 19.9973 22.2701 19.9973H22.2714ZM5.72293 19.9973C9.52059 19.9973 11.6806 18.2557 14.1924 12.9177C15.5622 9.97684 16.7335 7.09329 18.0753 4.23905L19.6743 4.7534C20.1021 4.89598 20.3313 4.6388 20.1314 4.23905L18.1899 0.270827C18.0473 -0.0143302 17.7329 -0.0436454 17.533 0.0429678L12.708 1.86984C12.3082 2.01242 12.3362 2.38419 12.7359 2.49745L14.1631 2.95451C12.9931 5.6102 11.5367 9.60641 10.3654 12.1182C9.05155 14.9165 8.39595 16.8859 6.16933 16.8859C3.9427 16.8859 3.57093 15.1443 4.51301 12.6605C5.59768 9.77697 7.42455 8.92016 9.5086 9.51979C10.0802 8.72028 10.508 7.52103 10.6785 6.43636C10.0789 6.26447 9.36469 6.2085 8.76639 6.2085C5.3978 6.2085 2.05719 7.95009 0.687373 11.6038C-1.0822 16.3143 0.554122 19.9973 5.7216 19.9973H5.72293Z" fill="currentColor"/></symbol>
	<symbol id="Discord" xmlns="http://www.w3.org/2000/svg" viewBox="0 0 127.14 96.36" stroke="currentColor" fill="none"><g id="图层_2" data-name="图层 2"><g id="Discord_Logos" data-name="Discord Logos"><g id="Discord_Logo_-_Large_-_White" data-name="Discord Logo - Large - White"><path class="cls-1" d="M107.7,8.07A105.15,105.15,0,0,0,81.47,0a72.06,72.06,0,0,0-3.36,6.83A97.68,97.68,0,0,0,49,6.83,72.37,72.37,0,0,0,45.64,0,105.89,105.89,0,0,0,19.39,8.09C2.79,32.65-1.71,56.6.54,80.21h0A105.73,105.73,0,0,0,32.71,96.36,77.7,77.7,0,0,0,39.6,85.25a68.42,68.42,0,0,1-10.85-5.18c.91-.66,1.8-1.34,2.66-2a75.57,75.57,0,0,0,64.32,0c.87.71,1.76,1.39,2.66,2a68.68,68.68,0,0,1-10.87,5.19,77,77,0,0,0,6.89,11.1A105.25,105.25,0,0,0,126.6,80.22h0C129.24,52.84,122.09,29.11,107.7,8.07ZM42.45,65.69C36.18,65.69,31,60,31,53s5-12.74,11.43-12.74S54,46,53.89,53,48.84,65.69,42.45,65.69Zm42.24,0C78.41,65.69,73.25,60,73.25,53s5-12.74,11.44-12.74S96.23,46,96.12,53,91.08,65.69,84.69,65.69Z"/></g></g></g></symbol>
	<symbol id="FilterList" xmlns="http://www.w3.org/2000/svg" viewBox="0 0 16 16" fill="none"><path d="M6.66667 12H9.33333V10.6667H6.66667V12ZM2 4V5.33333H14V4H2ZM4 8.66667H12V7.33333H4V8.66667Z" fill="currentColor"/></symbol>
	<symbol id="ChevronUp" xmlns="http://www.w3.org/2000/svg" viewBox="0 0 16 16" stroke="currentColor" fill="none"><path fill-rule="evenodd" clip-rule="evenodd" d="M7.52851 5.52827C7.78886 5.26792 8.21097 5.26792 8.47132 5.52827L12.4713 9.52827C12.7317 9.78862 12.7317 10.2107 12.4713 10.4711C12.211 10.7314 11.7889 10.7314 11.5285 10.4711L7.99992 6.94248L4.47132 10.4711C4.21097 10.7314 3.78886 10.7314 3.52851 10.4711C3.26816 10.2107 3.26816 9.78862 3.52851 9.52827L7.52851 5.52827Z" fill="black"/></symbol>
	<symbol id="Trash" width="20" height="20" viewBox="0 0 20 20" fill="none" xmlns="http://www.w3.org/2000/svg"><path fill-rule="evenodd" clip-rule="evenodd" d="M7.15482 2.15483C7.46738 1.84227 7.89131 1.66667 8.33333 1.66667H11.6667C12.1087 1.66667 12.5326 1.84227 12.8452 2.15483C13.1577 2.46739 13.3333 2.89131 13.3333 3.33334V5H15.8236C15.8295 4.99994 15.8353 4.99994 15.8412 5H16.6667C17.1269 5 17.5 5.3731 17.5 5.83334C17.5 6.29357 17.1269 6.66667 16.6667 6.66667H16.6001L15.833 15.8715C15.8231 16.5207 15.5609 17.1413 15.1011 17.6011C14.6323 18.0699 13.9964 18.3333 13.3333 18.3333H6.66667C6.00362 18.3333 5.36774 18.0699 4.8989 17.6011C4.43906 17.1413 4.17685 16.5207 4.16696 15.8715L3.39989 6.66667H3.33333C2.8731 6.66667 2.5 6.29357 2.5 5.83334C2.5 5.3731 2.8731 5 3.33333 5H4.15878C4.16467 4.99994 4.17055 4.99994 4.17641 5H6.66667V3.33334C6.66667 2.89131 6.84226 2.46739 7.15482 2.15483ZM5.07233 6.66667L5.83045 15.7641C5.83237 15.7871 5.83333 15.8102 5.83333 15.8333C5.83333 16.0543 5.92113 16.2663 6.07741 16.4226C6.23369 16.5789 6.44565 16.6667 6.66667 16.6667H13.3333C13.5543 16.6667 13.7663 16.5789 13.9226 16.4226C14.0789 16.2663 14.1667 16.0543 14.1667 15.8333C14.1667 15.8102 14.1676 15.7871 14.1695 15.7641L14.9277 6.66667H5.07233ZM11.6667 5H8.33333V3.33334H11.6667V5ZM8.33333 8.33334C8.79357 8.33334 9.16667 8.70643 9.16667 9.16667V14.1667C9.16667 14.6269 8.79357 15 8.33333 15C7.8731 15 7.5 14.6269 7.5 14.1667V9.16667C7.5 8.70643 7.8731 8.33334 8.33333 8.33334ZM11.6667 8.33334C12.1269 8.33334 12.5 8.70643 12.5 9.16667V14.1667C12.5 14.6269 12.1269 15 11.6667 15C11.2064 15 10.8333 14.6269 10.8333 14.1667V9.16667C10.8333 8.70643 11.2064 8.33334 11.6667 8.33334Z" fill="currentColor"/></symbol>
	<symbol id="WhatsApp"  xmlns="http://www.w3.org/2000/svg" viewBox="0 0 18 18" fill="none" ><path fill-rule="evenodd" clip-rule="evenodd" d="M13.333 3.94275C12.0977 2.88909 10.5203 2.32246 8.89688 2.34921C7.27345 2.37596 5.71558 2.99425 4.51564 4.08804C3.3157 5.18184 2.55617 6.67594 2.3796 8.28996C2.20302 9.90398 2.62153 11.527 3.5566 12.8543C3.72398 13.0919 3.75547 13.3996 3.63972 13.6661L2.88341 15.408L5.56246 14.9305C5.73665 14.8995 5.9162 14.9247 6.07512 15.0025C7.53336 15.7165 9.20204 15.8737 10.768 15.4448C12.334 15.0158 13.6896 14.0301 14.5804 12.6727C15.4712 11.3152 15.836 9.67933 15.6064 8.07201C15.3767 6.46468 14.5684 4.99641 13.333 3.94275ZM8.86942 0.682773C10.8987 0.649334 12.8704 1.35761 14.4146 2.67469C15.9588 3.99177 16.9692 5.8271 17.2563 7.83626C17.5433 9.84542 17.0873 11.8903 15.9738 13.5871C14.8603 15.2839 13.1658 16.516 11.2083 17.0522C9.34061 17.5638 7.35601 17.4083 5.59455 16.6177L1.64654 17.3213C1.34428 17.3752 1.03687 17.2585 0.846507 17.0176C0.656144 16.7767 0.613663 16.4506 0.735949 16.169L1.93091 13.417C0.947723 11.8367 0.519412 9.96793 0.722814 8.1087C0.943534 6.09118 1.89294 4.22355 3.39287 2.85631C4.8928 1.48907 6.84013 0.716212 8.86942 0.682773ZM6.03312 5.61685C6.26754 5.38243 6.58548 5.25073 6.917 5.25073C7.24852 5.25073 7.56646 5.38243 7.80088 5.61685C8.03531 5.85127 8.167 6.16921 8.167 6.50073V7.33407C8.167 7.66558 8.03531 7.98353 7.80088 8.21795C7.71659 8.30224 7.62149 8.37326 7.51885 8.42964C7.68255 8.89999 7.95113 9.33224 8.30998 9.69109C8.66883 10.0499 9.10107 10.3185 9.57143 10.4822C9.62781 10.3796 9.69882 10.2845 9.78312 10.2002C10.0175 9.96576 10.3355 9.83407 10.667 9.83407H11.5003C11.8319 9.83407 12.1498 9.96576 12.3842 10.2002C12.6186 10.4346 12.7503 10.7525 12.7503 11.0841C12.7503 11.4156 12.6186 11.7335 12.3842 11.9679C12.1498 12.2024 11.8319 12.3341 11.5003 12.3341H10.667C9.34092 12.3341 8.06915 11.8073 7.13147 10.8696C6.19378 9.93192 5.667 8.66015 5.667 7.33407V6.50073C5.667 6.16921 5.79869 5.85127 6.03312 5.61685Z" fill="currentColor"/></symbol>
	<symbol id="ArrowsPointingOut" xmlns="http://www.w3.org/2000/svg" fill="none" viewBox="0 0 24 24"><path stroke-linecap="round" stroke-linejoin="round" d="M3.75 3.75v4.5m0-4.5h4.5m-4.5 0L9 9M3.75 20.25v-4.5m0 4.5h4.5m-4.5 0L9 15M20.25 3.75h-4.5m4.5 0v4.5m0-4.5L15 9m5.25 11.25h-4.5m4.5 0v-4.5m0 4.5L15 15" /></symbol>
  <symbol id="Orders" viewBox="0 0 21 21" fill="none" xmlns="http://www.w3.org/2000/svg"><path d="M18.4137 5.19828L11.3017 1.125C11.0563 0.98915 10.7804 0.917877 10.4999 0.917877C10.2195 0.917877 9.9436 0.98915 9.69822 1.125L2.58615 5.19828C2.3378 5.34014 2.13154 5.54535 1.98842 5.79297C1.8453 6.0406 1.77044 6.32176 1.7715 6.60776V14.25C1.79008 14.516 1.8742 14.7733 2.01634 14.9989C2.15848 15.2245 2.35423 15.4115 2.58615 15.5431L9.69822 19.5647C9.9436 19.7005 10.2195 19.7718 10.4999 19.7718C10.7804 19.7718 11.0563 19.7005 11.3017 19.5647L18.4137 15.5431C18.6457 15.4115 18.8414 15.2245 18.9835 14.9989C19.1257 14.7733 19.2098 14.516 19.2284 14.25V6.55604C19.2205 6.27885 19.1414 6.00836 18.9987 5.77058C18.856 5.53279 18.6546 5.33571 18.4137 5.19828ZM9.69822 17.7543L6.94391 16.2026V9.34914L9.69822 10.8491V17.7543ZM10.4999 9.45259L7.81029 7.97845L14.0301 4.52587L16.7327 6.05173L10.4999 9.45259ZM10.4999 2.53449L12.3879 3.59483L6.12925 7.07328L4.26718 6.05173L10.4999 2.53449ZM3.38787 7.40949L5.32753 8.46983V15.2845L3.38787 14.25V7.40949ZM11.3017 17.7543V10.8491L17.612 7.40949V14.25L11.3017 17.7543Z" fill="currentColor"/></symbol>
  <symbol id="Chat" viewBox="0 0 21 21" fill="none" xmlns="http://www.w3.org/2000/svg"><path d="M7.91392 9.95616C7.91392 10.4918 7.45077 10.926 6.87944 10.926C6.30811 10.926 5.84495 10.4918 5.84495 9.95616C5.84495 9.42054 6.30811 8.98634 6.87944 8.98634C7.45077 8.98634 7.91392 9.42054 7.91392 9.95616Z" fill="currentColor"/><path d="M10.4999 10.926C11.0712 10.926 11.5344 10.4918 11.5344 9.95616C11.5344 9.42054 11.0712 8.98634 10.4999 8.98634C9.92855 8.98634 9.46539 9.42054 9.46539 9.95616C9.46539 10.4918 9.92855 10.926 10.4999 10.926Z" fill="currentColor"/><path d="M15.1548 9.95616C15.1548 10.4918 14.6916 10.926 14.1203 10.926C13.549 10.926 13.0858 10.4918 13.0858 9.95616C13.0858 9.42054 13.549 8.98634 14.1203 8.98634C14.6916 8.98634 15.1548 9.42054 15.1548 9.95616Z" fill="currentColor"/><path fill-rule="evenodd" clip-rule="evenodd" d="M1.53882 9.32285C1.53882 4.84871 5.54744 1.21509 10.5 1.21509C15.4526 1.21509 19.4612 4.84871 19.4612 9.32285C19.4612 13.797 15.4526 17.4306 10.5 17.4306C9.48489 17.4496 8.47418 17.2921 7.51296 16.9651C6.65206 17.7867 5.71705 18.5269 4.71985 19.1763C4.42551 19.3777 4.07545 19.4819 3.71885 19.4742C3.36225 19.4665 3.01703 19.3472 2.73169 19.1332C2.44635 18.9192 2.23521 18.6212 2.12795 18.281C2.02068 17.9408 2.02267 17.5756 2.13365 17.2366C2.69416 15.8009 2.7758 14.2225 2.3664 12.7366C1.8502 11.6708 1.56802 10.5068 1.53882 9.32285ZM17.8449 9.29698C17.8449 5.74095 14.5474 2.83147 10.5 2.83147C6.45261 2.83147 3.16813 5.77974 3.16813 9.36164C3.20255 10.3328 3.44508 11.2853 3.87934 12.1547C4.43662 13.9736 4.36833 15.9267 3.68537 17.7022V17.7797C3.71498 17.788 3.74628 17.788 3.77589 17.7797C4.6976 17.1924 5.56332 16.5214 6.36209 15.7754L7.08623 15.0513L8.05606 15.3875C8.84349 15.6504 9.66998 15.7773 10.5 15.7625C14.5474 15.7625 17.8449 12.853 17.8449 9.29698Z" fill="currentColor"/></symbol>
</svg>